<?xml version="1.0" encoding="utf-8"?>
<!-- Generator: Adobe Illustrator 21.0.0, SVG Export Plug-In . SVG Version: 6.00 Build 0)  -->
<svg version="1.1" xmlns="http://www.w3.org/2000/svg" xmlns:xlink="http://www.w3.org/1999/xlink" x="0px" y="0px"
     viewBox="0 0 86.4 96.1" style="enable-background:new 0 0 86.4 96.1;" xml:space="preserve">
<style type="text/css">
    .st0{fill:#FFFFFF;}
</style>
<g id="Layer_1">
    <g>
        <path class="st0" d="M49.9,87.1c-2.5,2.5-4.6,3.2-6.6,3.2s-4.1-0.7-6.6-3.2L9,59.4c-2.5-2.5-3.2-4.6-3.2-6.6
            c0-2.1,0.7-4.3,3.1-6.8c1.6-1.7,6.4-6.9,6.4-6.9l-3.2,16.4l4.8,4.7l3.6-19.3c2-10.5,3.7-21,5-31.6c0-0.3,0.1-0.5,0.1-0.8l0,0
            c1.9,11.7,4.1,23.4,6.6,35l6.2,28.4c0.7,3,2.6,4.5,4.7,4.5h0c2,0,4-1.5,4.7-4.5l6.2-28.4c2.5-11.6,4.7-23.3,6.6-35v0
            c0,0.2,0.1,0.5,0.1,0.8c1.4,10.6,3.1,21.1,5,31.6l9,47.6h5.8l-3.9-20.2l5-5c3.2-3.2,4.7-6.6,4.7-10.3c0-3.8-1.5-7.1-4.7-10.3
            L69.4,30L63.6,0h-5.8l-3.5,16.1l-0.7-0.7c-3.2-3.2-6.6-4.7-10.3-4.7c-3.8,0-7.1,1.5-10.3,4.7l-0.7,0.7L28.7,0h-5.8l-5.8,30
            L4.7,42.4C1.5,45.6,0,49,0,52.8c0,3.8,1.5,7.1,4.7,10.3l5,5l-4,20.2h5.9L14.6,73l18.3,18.3c3.2,3.2,6.6,4.7,10.3,4.7
            c3.8,0,7.1-1.5,10.3-4.7l14-14l-1.4-6.6L49.9,87.1z M77.6,45.8c2.2,2.3,3.2,4.4,3.2,6.9c0,2.5-1,4.5-3.2,6.8l-2.2,2.2l-4.5-23.2
            C70.8,38.5,76,44.1,77.6,45.8z M33.4,21.9c0.9-0.9,1.9-1.8,3-2.8c2.7-2.3,4.4-3.1,6.8-3.1c2.4,0,4.1,0.8,6.8,3.1
            c1.1,1,2.1,1.9,3,2.8l-8.1,37.4c-0.4,2.1-1.7,8.9-1.7,8.9s-1.3-6.8-1.7-8.9L33.4,21.9z"/>
    </g>
</g>
</svg>
